Coordinates
version=1
nRows=49
nColumns=12
inDegrees=yes

Units are S.I. units (second, meters, Newtons, ...)
Angles are in degrees

endheader
time	SC_y	SC_z	SC_x	AC_y	AC_z	AC_x	GH_y	GH_z	GH_yy	EL_x	PS_y
       0.0              -12.66          2.706          63.29          57.72         -8.113         -11.04          138.2          6.126         -33.31          108.1          54.87
    0.0322              -12.66          2.707          63.29          57.72         -8.111         -11.04          138.2          6.138          -33.3          108.1          54.87
    0.0644              -12.67          2.709          63.29          57.72         -8.109         -11.03          138.2           6.15         -33.28          108.1          54.88
   0.09659              -12.68           2.71          63.28          57.71         -8.107         -11.03          138.1          6.164         -33.26          108.1          54.89
    0.1288              -12.68          2.712          63.28          57.71         -8.105         -11.03          138.1          6.178         -33.24          108.1           54.9
     0.161              -12.69          2.714          63.27          57.71         -8.103         -11.03          138.1          6.194         -33.22          108.1          54.91
    0.1932               -12.7          2.716          63.27          57.71           -8.1         -11.03          138.0           6.21          -33.2          108.1          54.92
    0.2254               -12.7          2.718          63.26           57.7         -8.098         -11.03          138.0          6.228         -33.18          108.1          54.93
    0.2576              -12.71          2.721          63.26           57.7         -8.095         -11.03          137.9          6.247         -33.16          108.1          54.94
    0.2898              -12.72          2.723          63.25          57.69         -8.092         -11.02          137.9          6.267         -33.13          108.1          54.96
     0.322              -12.73          2.726          63.24          57.69         -8.089         -11.02          137.8          6.289          -33.1          108.1          54.97
    0.3542              -12.74          2.729          63.24          57.68         -8.085         -11.02          137.8          6.312         -33.07          108.1          54.99
    0.3864              -12.75          2.732          63.23          57.68         -8.081         -11.02          137.7          6.337         -33.04          108.1           55.0
    0.4186              -12.76          2.735          63.22          57.67         -8.077         -11.01          137.7          6.364          -33.0          108.1          55.02
    0.4508              -12.78          2.739          63.21          57.67         -8.073         -11.01          137.6          6.394         -32.96          108.0          55.04
     0.483              -12.79          2.743           63.2          57.66         -8.068         -11.01          137.5          6.426         -32.92          108.0          55.06
    0.5152              -12.81          2.747          63.19          57.65         -8.063          -11.0          137.4           6.46         -32.88          108.0          55.08
    0.5474              -12.82          2.752          63.18          57.65         -8.058          -11.0          137.3          6.498         -32.83          108.0           55.1
    0.5796              -12.84          2.757          63.17          57.64         -8.051          -11.0          137.2           6.54         -32.77          108.0          55.13
    0.6118              -12.86          2.763          63.16          57.63         -8.045         -10.99          137.1          6.585         -32.71          108.0          55.16
     0.644              -12.88          2.769          63.14          57.62         -8.037         -10.99          137.0          6.634         -32.65          108.0          55.19
    0.6762              -12.91          2.776          63.13          57.61         -8.029         -10.98          136.9          6.689         -32.58          108.0          55.23
    0.7084              -12.93          2.784          63.11          57.59          -8.02         -10.98          136.7          6.749          -32.5          108.0          55.26
    0.7406              -12.96          2.792          63.09          57.58          -8.01         -10.97          136.6          6.816         -32.41          108.0          55.31
    0.7728              -12.99          2.801          63.07          57.56         -7.999         -10.96          136.4          6.891         -32.31          108.0          55.35
     0.805              -13.03          2.811          63.05          57.55         -7.987         -10.95          136.2          6.973          -32.2          108.0          55.41
    0.8372              -13.07          2.823          63.02          57.53         -7.973         -10.95          136.0          7.066         -32.08          107.9          55.47
    0.8694              -13.12          2.836          62.99           57.5         -7.958         -10.94          135.7          7.171         -31.95          107.9          55.53
    0.9015              -13.17          2.851          62.95          57.48          -7.94         -10.92          135.4          7.289         -31.79          107.9          55.61
    0.9337              -13.23          2.868          62.91          57.45          -7.92         -10.91          135.1          7.423         -31.62          107.9          55.69
    0.9659              -13.29          2.887          62.87          57.42         -7.898          -10.9          134.8          7.576         -31.42          107.9          55.79
    0.9981              -13.37          2.909          62.82          57.38         -7.872         -10.88          134.3          7.752         -31.19          107.9           55.9
      1.03              -13.46          2.934          62.76          57.34         -7.841         -10.86          133.9          7.954         -30.92          107.8          56.03
     1.063              -13.56          2.963          62.69          57.29         -7.807         -10.84          133.3           8.19         -30.61          107.8          56.18
     1.095              -13.68          2.998          62.61          57.23         -7.766         -10.81          132.6          8.466         -30.25          107.7          56.36
     1.127              -13.82          3.038          62.52          57.17         -7.717         -10.78          131.9          8.791         -29.83          107.7          56.56
     1.159              -13.99          3.086           62.4          57.09          -7.66         -10.74          130.9          9.177         -29.32          107.6          56.81
     1.191              -14.19          3.144          62.27          56.99         -7.591         -10.69          129.8           9.64         -28.72          107.6           57.1
     1.224              -14.44          3.214           62.1          56.87         -7.508         -10.64          128.5           10.2         -27.99          107.5          57.46
     1.256              -14.74          3.299          61.91          56.73         -7.407         -10.57          126.9          10.88         -27.09          107.4           57.9
     1.288              -15.11          3.405          61.66          56.55         -7.282         -10.49          124.9          11.73         -25.99          107.3          58.43
      1.32              -15.57          3.536          61.35          56.33         -7.125         -10.39          122.3          12.78         -24.61          107.1          59.11
     1.352              -16.15          3.702          60.97          56.06         -6.929         -10.26          119.2          14.11         -22.87          106.9          59.95
     1.385              -16.88          3.912          60.47           55.7         -6.678          -10.1          115.2          15.79         -20.67          106.7          61.02
     1.417              -17.83          4.181          59.85          55.25         -6.358         -9.885          110.0          17.95         -17.85          106.4           62.4
     1.449              -19.04          4.527          59.04          54.67         -5.947         -9.615          103.4          20.72         -14.22          106.0          64.16
     1.481              -20.58          4.968          58.01          53.93         -5.422         -9.271          94.97          24.26         -9.597          105.5          66.42
     1.513              -22.53          5.524          56.71           53.0         -4.762         -8.837          84.37          28.71         -3.779          104.8          69.25
     1.546              -24.89            6.2          55.13          51.87         -3.958         -8.309          71.44          34.13          3.311          104.0           72.7
